<?xml version="1.0" standalone="no"?>
<!DOCTYPE svg PUBLIC "-//W3C//DTD SVG 20010904//EN"
 "http://www.w3.org/TR/2001/REC-SVG-20010904/DTD/svg10.dtd">
<svg version="1.0" xmlns="http://www.w3.org/2000/svg"
 width="705.000000pt" height="177.000000pt" viewBox="0 0 705.000000 177.000000"
 preserveAspectRatio="xMidYMid meet">

<g transform="translate(0.000000,177.000000) scale(0.100000,-0.100000)"
fill="#000000" stroke="none">
<path d="M2423 1615 c-102 -28 -181 -82 -245 -166 -95 -127 -105 -343 -22
-485 31 -53 118 -136 173 -164 109 -55 279 -74 447 -49 72 11 77 14 89 43 7
17 16 48 20 70 11 58 -11 64 -58 16 -77 -81 -188 -109 -301 -76 -148 43 -236
154 -254 319 -22 204 39 365 163 429 48 25 162 35 220 19 64 -17 132 -65 155
-110 16 -31 26 -41 45 -41 22 0 25 4 25 39 0 21 -3 58 -6 83 l-6 45 -94 22
c-109 25 -270 27 -351 6z"/>
<path d="M6640 1583 c-13 -9 -49 -27 -79 -39 -53 -22 -81 -54 -47 -54 9 0 23
-15 32 -32 15 -28 18 -78 22 -345 l5 -311 -27 -27 c-14 -14 -26 -28 -26 -30 0
-3 45 -5 100 -5 55 0 100 3 100 6 0 3 -9 17 -20 31 -17 22 -20 40 -20 117 l1
91 75 -80 c76 -81 96 -117 75 -138 -23 -23 -8 -27 104 -27 63 0 115 4 115 9 0
4 -17 20 -38 34 -21 14 -82 77 -136 141 l-98 115 20 29 c32 44 114 117 150
131 17 7 32 17 32 22 0 4 -43 9 -95 11 -69 2 -95 0 -95 -9 0 -6 5 -15 10 -18
25 -16 7 -53 -55 -115 l-65 -64 0 287 c0 158 -3 287 -8 287 -4 0 -18 -8 -32
-17z"/>
<path d="M4820 1565 c0 -8 7 -15 15 -15 8 0 19 -9 25 -19 13 -26 14 -715 0
-741 -5 -10 -21 -21 -35 -24 -14 -4 -25 -11 -25 -16 0 -6 74 -10 195 -10 211
0 259 8 324 57 64 49 89 151 55 231 -21 52 -61 91 -119 117 l-50 23 30 12 c83
32 138 104 138 183 1 99 -57 167 -173 201 -76 23 -380 23 -380 1z m339 -53
c46 -34 65 -69 69 -130 8 -115 -51 -183 -164 -190 l-64 -4 0 164 c0 118 4 168
13 177 17 18 114 7 146 -17z m-9 -394 c59 -30 91 -87 92 -161 1 -106 -53 -168
-152 -175 -88 -6 -90 -3 -90 194 l0 164 53 0 c35 0 68 -8 97 -22z"/>
<path d="M3537 1432 c-55 -60 32 -137 91 -82 26 24 28 47 6 78 -19 28 -74 30
-97 4z"/>
<path d="M3063 1238 l-43 -9 0 -60 c0 -68 11 -74 53 -29 48 51 138 51 164 -1
7 -13 13 -40 13 -60 l0 -36 -73 -5 c-127 -8 -197 -63 -204 -160 -5 -65 18
-106 72 -132 56 -27 114 -24 171 8 29 16 50 23 52 16 5 -13 56 -40 78 -40 18
0 94 57 94 71 0 5 -13 9 -30 9 -38 0 -39 5 -42 202 l-3 157 -28 29 c-46 48
-163 65 -274 40z m191 -260 c3 -13 6 -53 6 -90 0 -76 -10 -88 -75 -88 -49 0
-74 15 -91 55 -31 76 19 145 106 145 41 0 49 -3 54 -22z"/>
<path d="M3590 1235 c-14 -8 -47 -22 -75 -31 -27 -9 -52 -19 -55 -21 -2 -2 8
-14 23 -26 38 -30 46 -75 47 -239 0 -127 -1 -138 -20 -148 -41 -22 -19 -30 80
-30 99 0 121 8 80 30 -18 10 -20 21 -20 103 0 179 -13 377 -24 377 -6 -1 -22
-7 -36 -15z"/>
<path d="M4405 1244 c-11 -3 -30 -7 -42 -10 -21 -4 -23 -10 -23 -64 0 -68 9
-74 49 -31 50 53 144 50 170 -5 6 -14 11 -40 11 -59 l0 -35 -59 0 c-133 0
-221 -68 -221 -172 0 -116 132 -179 243 -115 l42 24 34 -24 c19 -12 43 -23 54
-23 20 0 97 55 97 70 0 5 -15 10 -32 12 l-33 3 -5 170 c-6 189 -12 210 -73
242 -32 16 -168 28 -212 17z m168 -331 c8 -101 1 -113 -66 -113 -49 0 -73 13
-92 50 -19 37 -19 54 1 95 19 40 45 53 105 54 l46 1 6 -87z"/>
<path d="M5595 1246 c-5 -3 -27 -7 -47 -11 l-38 -6 0 -59 c0 -47 3 -60 15 -60
9 0 18 6 21 14 9 23 49 45 93 52 36 6 43 3 71 -24 23 -24 30 -39 30 -70 l0
-39 -73 -5 c-128 -8 -207 -72 -207 -167 0 -121 129 -184 241 -119 l44 25 34
-24 c45 -31 65 -29 112 9 47 38 49 48 10 48 -17 0 -33 6 -38 13 -4 6 -6 80 -5
162 3 170 -7 204 -66 238 -30 18 -170 34 -197 23z m148 -333 c7 -102 0 -113
-69 -113 -64 0 -99 34 -99 95 0 40 5 51 33 76 26 24 41 29 81 29 l48 0 6 -87z"/>
<path d="M6087 1236 c-10 -8 -45 -22 -78 -32 -32 -10 -59 -21 -59 -26 0 -4 5
-8 10 -8 6 0 19 -9 30 -20 18 -18 20 -33 20 -195 0 -164 -1 -175 -20 -185 -41
-22 -19 -30 80 -30 55 0 100 3 100 8 0 4 -9 13 -20 20 -19 11 -20 23 -20 191
0 204 2 209 85 219 38 4 50 1 70 -18 36 -34 45 -79 45 -233 0 -125 -2 -139
-20 -154 -11 -10 -20 -21 -20 -25 0 -5 45 -8 100 -8 55 0 100 2 100 5 0 2 -11
15 -25 29 -25 25 -25 27 -25 191 0 118 -4 175 -14 199 -32 76 -122 105 -210
66 -85 -37 -90 -37 -82 -7 5 22 3 27 -11 27 -10 0 -26 -7 -36 -14z"/>
<path d="M3848 1232 c-60 -1 -108 -6 -108 -10 0 -4 11 -14 25 -23 14 -8 61
-63 104 -123 l79 -108 -67 -87 c-37 -47 -81 -95 -99 -106 -17 -11 -31 -23 -32
-27 0 -5 38 -8 85 -8 83 0 96 5 74 27 -17 17 -4 53 37 107 l36 48 39 -59 c39
-58 47 -87 29 -98 -28 -18 0 -25 95 -25 106 0 125 8 84 32 -23 15 -172 217
-172 234 0 22 135 182 164 194 16 7 29 16 29 21 0 4 -43 9 -95 11 -72 2 -95 0
-95 -10 0 -7 7 -15 15 -18 25 -10 17 -49 -20 -98 -20 -25 -38 -46 -40 -46 -2
0 -19 22 -39 49 -37 50 -44 79 -25 98 23 23 1 28 -103 25z"/>
<path d="M297 739 c-38 -10 -64 -32 -100 -80 -29 -40 -31 -47 -30 -121 2 -94
18 -122 88 -157 55 -27 112 -24 134 9 7 11 19 20 25 20 28 0 50 64 50 140 0
86 -15 138 -47 167 -24 23 -80 33 -120 22z"/>
<path d="M2102 503 c3 -17 128 -18 2473 -18 2189 0 2470 2 2470 15 0 13 -283
15 -2473 18 -2352 2 -2473 1 -2470 -15z"/>
<path d="M2652 250 c-36 -92 -75 -187 -88 -211 -14 -28 -14 -29 11 -29 15 0
25 5 24 13 -6 50 0 57 50 57 44 0 49 -3 55 -25 4 -14 4 -30 1 -35 -4 -6 10
-10 30 -10 32 0 35 2 25 20 -6 11 -30 70 -55 132 -39 102 -45 110 -53 88z m24
-117 l13 -33 -35 0 c-39 0 -40 6 -18 58 11 25 18 32 21 22 3 -8 12 -30 19 -47z"/>
<path d="M2992 148 c-7 -77 -16 -124 -24 -130 -8 -5 -2 -8 17 -8 l30 0 -3 82
c-4 97 -1 96 64 -13 l42 -72 43 84 43 84 7 -70 c4 -42 2 -75 -3 -83 -8 -9 -2
-12 26 -12 33 0 35 2 27 23 -5 12 -12 70 -16 130 -4 59 -10 107 -13 107 -4 0
-29 -47 -55 -103 l-48 -102 -57 103 c-31 56 -60 102 -63 102 -3 0 -11 -55 -17
-122z"/>
<path d="M3385 261 c-46 -4 -75 -9 -67 -14 16 -11 17 -208 0 -225 -9 -9 6 -12
70 -12 45 0 85 0 90 0 4 -1 9 9 10 22 3 18 1 20 -11 10 -8 -7 -35 -15 -61 -18
l-46 -7 0 57 0 56 40 0 c27 0 42 -6 49 -17 8 -15 10 -10 11 21 0 31 -3 37 -12
28 -7 -7 -29 -12 -50 -12 l-38 0 0 50 0 50 34 0 c19 0 41 -7 50 -15 20 -21 26
-19 26 10 0 14 -3 24 -7 23 -5 -1 -44 -4 -88 -7z"/>
<path d="M3540 146 c0 -90 -3 -126 -12 -129 -7 -3 4 -6 26 -6 29 -1 36 2 28
12 -5 6 -13 50 -16 97 l-7 85 100 -105 100 -105 1 121 c0 79 4 124 12 132 9 9
4 12 -22 12 -26 0 -31 -3 -22 -12 7 -7 12 -43 12 -93 l-1 -80 -92 98 c-51 54
-95 98 -99 97 -5 0 -8 -56 -8 -124z"/>
<path d="M3800 243 c0 -27 6 -29 26 -8 20 20 70 19 78 -1 11 -29 7 -199 -6
-212 -9 -9 -2 -12 33 -11 24 0 38 3 32 6 -9 3 -13 37 -13 119 l0 114 29 0 c16
0 36 -7 45 -15 20 -21 26 -19 26 8 0 22 -2 22 -125 22 -123 0 -125 0 -125 -22z"/>
<path d="M4108 254 c-31 -16 -44 -51 -34 -89 5 -18 22 -33 64 -53 60 -29 73
-49 47 -76 -23 -23 -61 -20 -85 6 l-22 23 4 -25 c7 -56 121 -47 142 11 16 47
1 73 -56 100 -56 25 -72 55 -48 85 16 18 64 18 80 -1 17 -20 30 -19 30 4 0 32
-74 41 -122 15z"/>
<path d="M4400 250 c-24 -24 -25 -36 -5 -74 14 -27 13 -30 -11 -59 -45 -53
-17 -117 52 -117 17 0 43 9 58 21 l26 21 35 -22 c19 -12 45 -20 57 -18 19 3
17 6 -20 31 -23 15 -42 32 -42 38 0 19 40 88 57 98 15 8 11 10 -21 11 -32 0
-37 -2 -27 -14 10 -11 9 -21 -4 -45 -8 -17 -19 -31 -23 -31 -5 0 -23 15 -40
33 -32 33 -32 33 -12 52 26 24 25 60 -2 79 -30 21 -54 20 -78 -4z m65 -40 c0
-42 -23 -48 -41 -11 -16 31 -7 53 20 49 17 -2 21 -10 21 -38z m8 -118 c40 -41
38 -51 -10 -66 -35 -11 -63 10 -63 47 0 30 14 57 30 57 3 0 23 -17 43 -38z"/>
<path d="M4814 256 c-95 -42 -108 -173 -22 -225 64 -40 169 -37 177 4 3 18 2
18 -23 2 -35 -23 -88 -21 -119 4 -51 39 -56 140 -11 190 24 27 95 26 119 -1
23 -25 35 -25 35 0 0 38 -93 53 -156 26z"/>
<path d="M5074 256 c-50 -22 -74 -61 -74 -122 0 -42 5 -59 25 -83 51 -60 157
-66 218 -11 30 26 32 33 32 93 0 51 -4 70 -20 87 -42 47 -120 62 -181 36z
m127 -32 c20 -22 24 -36 24 -89 0 -80 -26 -115 -86 -115 -54 0 -89 44 -89 111
0 51 20 103 42 112 36 15 85 6 109 -19z"/>
<path d="M5328 149 c-4 -88 -9 -123 -19 -130 -9 -6 -1 -9 26 -9 30 0 36 3 27
12 -7 7 -12 43 -12 93 l1 80 94 -100 94 -100 1 113 c0 62 5 122 10 133 10 17
7 19 -21 19 -26 0 -29 -2 -20 -14 8 -9 11 -43 9 -91 l-3 -77 -85 95 c-47 53
-88 96 -91 96 -3 1 -8 -53 -11 -120z"/>
<path d="M5624 245 c-20 -20 -25 -34 -22 -63 3 -34 7 -39 61 -65 44 -22 57
-33 57 -50 0 -13 -5 -28 -12 -35 -20 -20 -65 -14 -83 11 l-16 22 3 -25 c7 -57
129 -45 144 15 11 43 -11 74 -66 97 -53 22 -68 45 -50 78 13 25 66 27 92 3 17
-15 18 -15 18 4 0 42 -87 47 -126 8z"/>
<path d="M6103 149 c-7 -82 -15 -124 -24 -130 -10 -6 -5 -9 16 -9 l30 0 -3 80
c-2 44 0 80 5 80 4 0 28 -36 53 -80 25 -44 47 -80 50 -80 3 1 23 38 44 83 l40
82 7 -70 c5 -45 4 -74 -3 -82 -8 -10 -3 -13 24 -13 l35 0 -9 47 c-4 27 -11 86
-16 133 l-7 85 -54 -104 -53 -104 -56 102 c-31 55 -59 101 -63 101 -3 0 -10
-55 -16 -121z"/>
<path d="M6488 263 l-77 -4 9 -25 c14 -37 13 -197 -2 -212 -9 -9 6 -12 70 -12
45 0 85 0 90 0 4 -1 9 9 10 22 3 18 1 20 -11 10 -8 -7 -35 -15 -61 -18 l-46
-7 0 57 0 56 36 0 c23 0 42 -6 50 -17 12 -16 13 -13 14 21 0 31 -3 37 -12 28
-7 -7 -29 -12 -50 -12 l-38 0 0 50 0 50 34 0 c19 0 41 -7 50 -15 20 -21 26
-19 26 10 0 14 -3 24 -7 23 -5 -1 -43 -4 -85 -5z"/>
<path d="M2380 234 c14 -37 13 -197 -2 -212 -9 -9 -4 -12 23 -12 l34 0 -3 50
-4 50 35 0 c52 0 87 32 87 80 0 44 -27 71 -70 69 -15 0 -19 -3 -10 -6 63 -23
48 -133 -19 -133 -22 0 -22 3 -19 70 l3 70 -32 0 c-31 0 -32 -1 -23 -26z"/>
<path d="M2753 253 c3 -5 23 -38 46 -76 42 -68 50 -111 31 -148 -10 -17 -7
-19 25 -19 32 0 35 2 25 19 -24 47 -11 89 68 209 14 21 13 22 -12 22 -16 0
-24 -5 -21 -12 3 -7 -8 -35 -24 -61 l-28 -49 -27 46 c-14 24 -26 52 -26 60 0
11 -9 16 -31 16 -16 0 -28 -3 -26 -7z"/>
<path d="M5805 153 c6 -60 14 -113 18 -120 12 -18 75 -36 105 -28 15 4 35 14
45 22 15 15 17 15 17 0 0 -12 9 -17 33 -17 21 0 27 3 19 9 -10 6 -12 36 -10
124 l3 117 -25 0 -25 0 3 -99 c3 -94 2 -100 -20 -115 -30 -21 -71 -20 -98 2
-19 15 -24 31 -28 94 -3 47 0 83 7 96 11 21 9 22 -22 22 l-33 0 11 -107z"/>
<path d="M6635 135 l0 -125 35 0 c26 0 31 3 22 12 -7 7 -12 32 -12 57 l0 44
25 -23 c13 -13 35 -38 47 -56 18 -26 30 -34 55 -34 l31 0 -49 52 -48 53 29 23
c23 18 30 32 30 57 0 47 -29 65 -105 65 l-60 0 0 -125z m107 98 c10 -9 18 -27
18 -40 0 -28 -33 -63 -60 -63 -18 0 -20 7 -20 60 0 55 2 60 22 60 12 0 30 -7
40 -17z"/>
</g>
</svg>
