<?xml version="1.0" encoding="UTF-8"?>
<svg xmlns="http://www.w3.org/2000/svg" xmlns:xlink="http://www.w3.org/1999/xlink" width="127px" height="127px" viewBox="0 0 127 127" version="1.1">
<g id="surface1">
<path style=" stroke:none;fill-rule:nonzero;fill:rgb(0%,0%,0%);fill-opacity:1;" d="M 61.992188 37.347656 C 57.585938 39.050781 55.164062 42.585938 50.800781 53.578125 C 48.0625 60.40625 46.792969 61.953125 43.578125 62.230469 C 39.765625 62.546875 38.457031 61.4375 33.140625 53.378906 C 29.367188 47.664062 26.390625 44.449219 24.011719 43.417969 C 23.257812 43.101562 21.511719 42.863281 20.121094 42.863281 C 12.820312 42.863281 8.253906 49.332031 6.667969 61.792969 C 5.753906 68.9375 8.136719 81.242188 11.628906 87.429688 C 13.214844 90.289062 15.953125 90.882812 17.9375 88.859375 C 19.050781 87.75 19.128906 87.511719 18.929688 85.605469 C 18.8125 84.453125 17.9375 81.121094 17.066406 78.183594 C 14.40625 69.652344 14.722656 65.484375 17.976562 65.484375 C 19.644531 65.484375 20.675781 66.792969 25.398438 75.050781 C 31.589844 85.882812 33.972656 87.867188 40.679688 87.90625 C 45.085938 87.90625 47.664062 87.074219 50.203125 84.851562 C 52.46875 82.867188 53.777344 80.25 55.917969 73.539062 C 59.691406 61.515625 62.707031 56.753906 66.515625 56.753906 C 68.738281 56.753906 70.246094 59.292969 70.246094 63.101562 C 70.246094 64.09375 70.046875 67.308594 69.769531 70.246094 C 69.253906 76.160156 69.414062 77.390625 70.84375 78.820312 C 72.667969 80.644531 75.761719 79.730469 77.191406 76.953125 C 78.066406 75.289062 78.976562 68.699219 78.976562 63.898438 C 78.976562 53.855469 76.515625 44.132812 72.828125 39.765625 C 71.359375 38.019531 68.105469 36.511719 65.921875 36.550781 C 64.890625 36.550781 63.144531 36.910156 61.992188 37.347656 Z M 61.992188 37.347656 "/>
<path style=" stroke:none;fill-rule:nonzero;fill:rgb(0%,0%,0%);fill-opacity:1;" d="M 97.550781 51.078125 L 97.433594 57.347656 L 91.164062 57.46875 L 84.890625 57.585938 L 85.011719 62.625 L 85.128906 67.667969 L 91.359375 67.785156 L 97.589844 67.90625 L 97.710938 74.136719 L 97.828125 80.367188 L 107.75 80.367188 L 107.871094 74.097656 L 107.988281 67.867188 L 120.648438 67.867188 L 120.648438 57.546875 L 107.949219 57.546875 L 107.949219 44.847656 L 97.671875 44.847656 Z M 97.550781 51.078125 "/>
</g>
</svg>
