<?xml version="1.0" standalone="no"?>
<!DOCTYPE svg PUBLIC "-//W3C//DTD SVG 20010904//EN"
 "http://www.w3.org/TR/2001/REC-SVG-20010904/DTD/svg10.dtd">
<svg version="1.0" xmlns="http://www.w3.org/2000/svg"
 width="640.000000pt" height="289.000000pt" viewBox="0 0 640.000000 289.000000"
 preserveAspectRatio="xMidYMid meet">

<g transform="translate(0.000000,289.000000) scale(0.100000,-0.100000)"
fill="#000000" stroke="none">
<path d="M3085 2874 c-155 -37 -321 -158 -420 -304 -55 -82 -144 -279 -265
-580 -141 -352 -180 -413 -298 -468 -77 -36 -192 -38 -266 -4 -121 55 -185
126 -340 372 -326 517 -488 662 -746 661 -359 -1 -604 -291 -709 -842 -70
-366 -45 -717 83 -1155 108 -369 194 -517 319 -545 73 -16 127 -1 178 50 27
27 40 51 49 93 17 76 3 149 -90 458 -114 380 -134 544 -82 646 41 79 130 101
204 48 56 -39 97 -100 263 -389 292 -509 317 -547 435 -648 72 -61 198 -123
291 -143 55 -12 105 -15 194 -10 318 14 521 140 645 400 21 45 74 196 119 336
148 468 221 642 336 796 63 85 153 149 220 160 37 5 55 2 98 -19 62 -31 100
-84 119 -166 19 -83 14 -332 -11 -589 -21 -215 -21 -258 1 -332 25 -83 99
-140 183 -140 92 0 179 67 224 173 64 148 105 597 82 892 -36 457 -137 820
-287 1031 -132 186 -327 267 -529 218z"/>
<path d="M5167 2328 c-4 -62 -7 -215 -7 -340 l0 -228 -340 0 -340 0 0 -275 0
-275 340 0 340 0 0 -340 0 -340 280 0 280 0 0 340 0 340 340 0 340 0 0 275 0
275 -340 0 -340 0 0 340 0 340 -273 0 -274 0 -6 -112z"/>
</g>
</svg>
