<?xml version="1.0" standalone="no"?>
<!DOCTYPE svg PUBLIC "-//W3C//DTD SVG 20010904//EN"
 "http://www.w3.org/TR/2001/REC-SVG-20010904/DTD/svg10.dtd">
<svg version="1.0" xmlns="http://www.w3.org/2000/svg"
 width="320.000000pt" height="144.000000pt" viewBox="0 0 320.000000 144.000000"
 preserveAspectRatio="xMidYMid meet">

<g transform="translate(0.000000,144.000000) scale(0.100000,-0.100000)"
fill="#000000" stroke="none">
<path d="M1526 1423 c-28 -8 -69 -28 -91 -43 -87 -60 -129 -127 -225 -365 -69
-171 -82 -196 -123 -232 -66 -58 -157 -51 -232 18 -23 22 -69 81 -101 132
-134 212 -220 304 -307 328 -153 41 -305 -56 -376 -241 -91 -236 -87 -501 11
-798 60 -181 124 -247 204 -209 68 33 68 93 3 302 -62 203 -64 316 -3 343 29
14 60 3 91 -29 11 -13 73 -114 137 -224 132 -228 184 -288 283 -325 81 -31
223 -25 304 12 113 52 156 120 237 373 77 240 145 370 217 415 38 24 66 25
104 5 57 -29 66 -109 48 -400 -8 -121 -7 -132 12 -162 27 -42 80 -54 128 -28
76 42 110 197 100 473 -12 368 -114 608 -280 657 -61 18 -78 18 -141 -2z"/>
<path d="M2580 1045 l0 -165 -170 0 -170 0 0 -140 0 -140 170 0 170 0 0 -170
0 -171 138 3 137 3 3 168 2 167 170 0 170 0 0 140 0 140 -170 0 -170 0 0 165
0 165 -140 0 -140 0 0 -165z"/>
</g>
</svg>
