<?xml version="1.0" standalone="no"?>
<!DOCTYPE svg PUBLIC "-//W3C//DTD SVG 20010904//EN"
 "http://www.w3.org/TR/2001/REC-SVG-20010904/DTD/svg10.dtd">
<svg version="1.0" xmlns="http://www.w3.org/2000/svg"
 width="1250.000000pt" height="703.000000pt" viewBox="0 0 1250.000000 703.000000"
 preserveAspectRatio="xMidYMid meet">

<g transform="translate(0.000000,703.000000) scale(0.100000,-0.100000)"
fill="#000000" stroke="none">
<path d="M6095 5250 c-186 -49 -344 -159 -468 -325 -88 -118 -163 -277 -382
-820 -53 -132 -111 -267 -128 -299 -70 -131 -181 -215 -315 -237 -190 -30
-385 92 -542 338 -313 493 -398 610 -542 748 -160 155 -280 208 -468 208 -194
0 -342 -64 -491 -212 -158 -158 -262 -364 -334 -665 -59 -242 -78 -400 -78
-636 0 -334 57 -658 184 -1050 103 -315 180 -458 275 -512 97 -54 206 -47 282
18 54 46 74 100 74 199 0 94 -14 152 -122 511 -102 337 -123 437 -124 584 -1
107 1 119 28 173 40 83 107 118 192 102 41 -7 127 -82 174 -150 15 -22 107
-179 205 -350 367 -641 402 -693 543 -806 197 -159 428 -216 707 -174 203 30
347 93 465 202 150 139 210 257 339 663 144 456 209 631 308 822 134 260 310
402 454 368 106 -26 176 -115 200 -255 15 -90 6 -481 -15 -655 -25 -196 -30
-328 -17 -391 17 -82 66 -158 121 -189 60 -33 165 -35 225 -3 55 29 131 113
160 176 100 220 136 952 70 1417 -45 309 -141 633 -246 828 -107 199 -260 333
-434 377 -80 20 -213 18 -300 -5z"/>
<path d="M8657 4723 c-4 -3 -7 -192 -7 -420 l0 -413 -415 0 -415 0 0 -335 0
-335 415 0 415 0 0 -415 0 -415 338 0 337 0 -3 415 -2 415 420 0 420 0 0 335
0 335 -417 2 -418 3 -2 415 -2 415 -329 3 c-181 1 -331 -1 -335 -5z"/>
</g>
</svg>
