<?xml version="1.0" standalone="no"?>
<!DOCTYPE svg PUBLIC "-//W3C//DTD SVG 20010904//EN"
 "http://www.w3.org/TR/2001/REC-SVG-20010904/DTD/svg10.dtd">
<svg version="1.0" xmlns="http://www.w3.org/2000/svg"
 width="335.000000pt" height="150.000000pt" viewBox="0 0 335.000000 150.000000"
 preserveAspectRatio="xMidYMid meet">

<g transform="translate(0.000000,150.000000) scale(0.100000,-0.100000)"
fill="#000000" stroke="none">
<path d="M1583 1482 c-138 -49 -201 -137 -334 -471 -43 -108 -63 -144 -99
-182 -58 -61 -112 -72 -186 -39 -69 30 -84 46 -201 223 -168 253 -239 311
-376 310 -323 -4 -475 -523 -312 -1060 54 -175 99 -247 162 -259 40 -8 84 9
102 38 23 37 13 111 -35 274 -40 134 -48 173 -48 245 -1 101 14 129 69 129 49
0 82 -41 196 -240 162 -281 181 -304 289 -361 40 -21 58 -24 165 -24 109 0
125 2 176 26 70 33 130 91 165 160 14 29 52 133 85 233 88 273 157 399 242
443 41 21 90 10 121 -27 34 -42 41 -115 28 -295 -7 -82 -12 -167 -12 -188 0
-156 175 -170 224 -18 23 72 36 190 36 336 0 373 -98 656 -254 737 -56 29
-139 33 -203 10z"/>
<path d="M2700 1090 l0 -180 -175 0 -175 0 0 -140 0 -140 175 0 175 0 0 -180
0 -180 145 0 145 0 0 180 0 180 178 0 177 0 0 140 0 140 -177 0 -178 0 0 180
0 180 -145 0 -145 0 0 -180z"/>
</g>
</svg>
