<?xml version="1.0" standalone="no"?>
<!DOCTYPE svg PUBLIC "-//W3C//DTD SVG 20010904//EN"
 "http://www.w3.org/TR/2001/REC-SVG-20010904/DTD/svg10.dtd">
<svg version="1.0" xmlns="http://www.w3.org/2000/svg"
 width="320.000000pt" height="320.000000pt" viewBox="0 0 320.000000 320.000000"
 preserveAspectRatio="xMidYMid meet">

<g transform="translate(0.000000,320.000000) scale(0.100000,-0.100000)"
fill="#000000" stroke="none">
<path d="M1562 2259 c-111 -43 -172 -132 -282 -409 -69 -172 -101 -211 -182
-218 -96 -8 -129 20 -263 223 -95 144 -170 225 -230 251 -19 8 -63 14 -98 14
-184 0 -299 -163 -339 -477 -23 -180 37 -490 125 -646 40 -72 109 -87 159 -36
28 28 30 34 25 82 -3 29 -25 113 -47 187 -67 215 -59 320 23 320 42 0 68 -33
187 -241 156 -273 216 -323 385 -324 111 0 176 21 240 77 57 50 90 116 144
285 95 303 171 423 267 423 56 0 94 -64 94 -160 0 -25 -5 -106 -12 -180 -13
-149 -9 -180 27 -216 46 -46 124 -23 160 47 22 42 45 208 45 329 0 253 -62
498 -155 608 -37 44 -119 82 -174 81 -26 0 -70 -9 -99 -20z"/>
<path d="M2458 1913 l-3 -158 -158 -3 -158 -3 3 -127 3 -127 157 -3 157 -3 3
-157 3 -157 125 0 125 0 3 158 3 157 159 0 160 0 0 130 0 130 -160 0 -160 0 0
160 0 160 -130 0 -129 0 -3 -157z"/>
</g>
</svg>
