<?xml version="1.0" standalone="no"?>
<!DOCTYPE svg PUBLIC "-//W3C//DTD SVG 20010904//EN"
 "http://www.w3.org/TR/2001/REC-SVG-20010904/DTD/svg10.dtd">
<svg version="1.0" xmlns="http://www.w3.org/2000/svg"
 width="1024.000000pt" height="462.000000pt" viewBox="0 0 1024.000000 462.000000"
 preserveAspectRatio="xMidYMid meet">

<g transform="translate(0.000000,462.000000) scale(0.100000,-0.100000)"
fill="#000000" stroke="none">
<path d="M4967 4604 c-284 -61 -539 -242 -715 -509 -84 -128 -204 -393 -427
-945 -70 -173 -142 -347 -160 -386 -72 -156 -175 -271 -295 -328 -155 -75
-301 -71 -469 10 -82 40 -108 60 -197 148 -106 106 -132 142 -314 431 -388
619 -606 870 -855 985 -118 55 -208 74 -350 73 -257 -1 -468 -95 -655 -289
-191 -199 -322 -460 -415 -829 -131 -518 -148 -975 -55 -1510 66 -382 213
-871 339 -1130 100 -205 171 -278 301 -311 204 -52 366 71 378 287 7 125 -22
254 -162 705 -65 211 -122 426 -147 559 -21 107 -18 316 5 392 35 115 110 173
222 173 72 0 122 -28 196 -108 66 -71 103 -129 385 -622 428 -746 446 -774
592 -913 285 -270 599 -359 1036 -292 402 62 677 268 849 636 24 52 78 202
121 334 237 739 296 905 416 1155 131 271 269 445 420 525 69 37 80 40 154 40
70 0 87 -4 133 -29 92 -52 142 -127 179 -271 15 -58 18 -112 17 -320 0 -205
-6 -310 -33 -585 -36 -367 -37 -451 -2 -562 38 -121 118 -196 234 -220 104
-22 218 16 305 102 125 123 178 298 229 760 25 221 25 812 0 1030 -83 740
-270 1291 -533 1570 -198 209 -467 300 -727 244z"/>
<path d="M8268 3358 l-3 -543 -547 -3 -548 -2 0 -440 0 -440 550 0 550 0 0
-545 0 -545 440 0 440 0 0 545 0 545 545 0 545 0 0 440 0 440 -545 0 -545 0 0
545 0 545 -440 0 -440 0 -2 -542z"/>
</g>
</svg>
